<svg width="542" height="543" viewBox="0 0 542 543" fill="none" xmlns="http://www.w3.org/2000/svg">
<g clip-path="url(#clip0)">
<path d="M265.528 502.397C259.442 502.561 253.414 501.167 248.016 498.349L43.4457 380.275C38.8833 377.634 36.3619 373.964 36.3619 369.984C36.3619 365.148 39.981 360.294 46.31 356.623L245.135 241.843C257.038 234.982 275.099 234.227 285.408 240.127L489.978 358.218C494.541 360.86 497.062 364.53 497.062 368.509C497.062 373.346 493.443 378.217 487.114 381.871L288.289 496.72C281.308 500.515 273.474 502.469 265.528 502.397ZM267.895 236.868C260.08 236.797 252.376 238.722 245.512 242.46L46.7045 357.241C40.6156 360.671 37.1166 365.388 37.1166 369.933C37.1166 373.672 39.5007 377.12 43.8402 379.607L248.394 497.715C258.496 503.546 276.214 502.86 287.843 495.999L486.651 381.202C492.74 377.686 496.239 373.055 496.239 368.509C496.239 364.77 493.855 361.34 489.515 358.836L285.03 240.796C279.747 238.046 273.849 236.694 267.895 236.868Z" fill="#6EE8FC"/>
<path d="M220.47 258.96C220.47 259.832 220.211 260.685 219.726 261.411C219.241 262.136 218.552 262.701 217.745 263.034C216.939 263.367 216.052 263.453 215.196 263.282C214.341 263.11 213.555 262.689 212.939 262.071C212.324 261.453 211.905 260.665 211.737 259.809C211.569 258.953 211.659 258.066 211.995 257.261C212.331 256.456 212.899 255.769 213.626 255.286C214.353 254.804 215.207 254.548 216.08 254.552C216.658 254.552 217.23 254.666 217.764 254.888C218.298 255.109 218.782 255.434 219.19 255.844C219.598 256.253 219.921 256.74 220.141 257.274C220.361 257.809 220.473 258.382 220.47 258.96Z" fill="#6EE8FC"/>
<path d="M64.8169 349.008C64.8169 349.88 64.5584 350.732 64.0741 351.457C63.5897 352.182 62.9013 352.747 62.0958 353.08C61.2903 353.414 60.404 353.501 59.5489 353.331C58.6939 353.161 57.9085 352.741 57.292 352.125C56.6755 351.508 56.2557 350.723 56.0856 349.868C55.9155 349.013 56.0028 348.126 56.3364 347.321C56.6701 346.515 57.2351 345.827 57.96 345.343C58.6849 344.858 59.5371 344.6 60.4089 344.6C61.578 344.6 62.6992 345.064 63.5259 345.891C64.3525 346.717 64.8169 347.839 64.8169 349.008Z" fill="#6EE8FC"/>
<path d="M398.301 437.168C400.736 437.168 402.709 435.195 402.709 432.76C402.709 430.326 400.736 428.352 398.301 428.352C395.867 428.352 393.893 430.326 393.893 432.76C393.893 435.195 395.867 437.168 398.301 437.168Z" fill="#6EE8FC"/>
<path d="M431.319 415.9C431.319 416.772 431.06 417.625 430.575 418.351C430.089 419.076 429.4 419.641 428.594 419.974C427.787 420.307 426.9 420.393 426.044 420.222C425.189 420.05 424.403 419.629 423.788 419.011C423.172 418.392 422.753 417.605 422.585 416.749C422.417 415.893 422.507 415.006 422.843 414.201C423.179 413.396 423.747 412.709 424.474 412.226C425.201 411.744 426.055 411.488 426.928 411.492C428.094 411.496 429.211 411.963 430.034 412.789C430.857 413.615 431.319 414.734 431.319 415.9Z" fill="#6EE8FC"/>
<path d="M459.945 399.297C459.945 400.169 459.687 401.021 459.202 401.746C458.718 402.471 458.03 403.036 457.224 403.369C456.419 403.703 455.532 403.79 454.677 403.62C453.822 403.45 453.037 403.03 452.42 402.414C451.804 401.797 451.384 401.012 451.214 400.157C451.044 399.302 451.131 398.415 451.465 397.61C451.798 396.804 452.363 396.116 453.088 395.632C453.813 395.147 454.665 394.889 455.537 394.889C456.706 394.889 457.827 395.353 458.654 396.18C459.481 397.006 459.945 398.128 459.945 399.297Z" fill="#6EE8FC"/>
<path d="M247.227 464.406L101.436 380.241C90.3561 373.844 91.7454 362.66 104.541 355.285L244.123 274.671C256.918 267.296 276.266 266.49 287.346 272.956L433.137 357.12C444.217 363.518 442.828 374.701 430.049 382.076L290.467 462.69C277.655 469.997 258.308 470.803 247.227 464.406Z" fill="#3856C1"/>
<path d="M459.191 282.527V252.391H381.424L289.49 199.306C277.226 192.222 255.786 193.114 241.619 201.296L153.132 252.391H75.3139V284.225C74.9537 289.028 77.6294 293.659 83.5297 297.055L245.066 390.292C257.347 397.376 278.77 396.484 292.937 388.303L447.527 299.113C455.709 294.327 459.671 288.221 459.191 282.527Z" fill="#312A91"/>
<path opacity="0.5" d="M459.191 282.527V252.391H381.424L289.49 199.306C277.226 192.222 255.786 193.114 241.619 201.296L153.132 252.391H75.3139V284.225C74.9537 289.028 77.6294 293.659 83.5297 297.055L245.066 390.292C257.347 397.376 278.77 396.484 292.937 388.303L447.527 299.113C455.709 294.327 459.671 288.221 459.191 282.527Z" fill="url(#paint0_linear)"/>
<path d="M289.49 199.305C283.589 195.875 275.579 194.349 267.192 194.554V395.026C276.189 394.92 285.022 392.612 292.92 388.302L447.51 299.112C455.692 294.396 459.637 288.29 459.173 282.595V252.391H381.424L289.49 199.305Z" fill="url(#paint1_linear)"/>
<path d="M245.066 358.441L83.5983 265.203C71.3347 258.119 72.8612 245.753 87.0287 237.571L241.619 148.382C255.786 140.2 277.226 139.308 289.49 146.392L450.975 239.63C463.238 246.713 461.695 259.08 447.544 267.261L292.954 356.451C278.77 364.564 257.278 365.525 245.066 358.441Z" fill="#312A91"/>
<path opacity="0.5" d="M245.066 358.441L83.5983 265.203C71.3347 258.119 72.8612 245.753 87.0287 237.571L241.619 148.382C255.786 140.2 277.226 139.308 289.49 146.392L450.975 239.63C463.238 246.713 461.695 259.08 447.544 267.261L292.954 356.451C278.77 364.564 257.278 365.525 245.066 358.441Z" fill="url(#paint2_linear)"/>
<path d="M249.389 337.824L119.291 262.716C109.395 257.005 110.715 247.039 122.053 240.419L246.61 168.501C258.033 161.915 275.288 161.194 285.185 166.906L415.282 242.014C425.161 247.726 423.858 257.691 412.503 264.311L287.946 336.229C276.54 342.816 259.268 343.536 249.389 337.824Z" fill="#01E4F0"/>
<path d="M122.053 250.195L246.61 178.277C258.033 171.691 275.288 170.971 285.185 176.682L415.282 251.79C417.428 252.952 419.25 254.633 420.582 256.679C423.446 251.413 421.782 245.804 415.282 242.048L285.185 166.94C275.288 161.228 258.033 161.949 246.61 168.535L122.053 240.453C113.477 245.41 110.647 252.288 113.991 257.828C115.929 254.593 118.717 251.953 122.053 250.195Z" fill="#42E8E0"/>
<path opacity="0.5" d="M250.418 358.441L89.0183 265.204C76.7547 258.12 73.8217 247.726 92.4486 237.572L247.056 148.382C254.505 144.314 262.794 142.024 271.274 141.693C260.963 141.161 250.704 143.476 241.619 148.382L87.0287 237.572C72.8612 245.753 71.3347 258.154 83.5983 265.204L245.066 358.441C251.31 362.026 259.903 363.587 268.719 363.141C262.335 363.028 256.066 361.418 250.418 358.441Z" fill="url(#paint3_linear)"/>
<path opacity="0.5" d="M447.527 280.657L292.937 369.847C278.77 378.028 257.347 378.92 245.066 371.836L83.5983 278.599C77.698 275.168 75.0223 270.572 75.3825 265.769V272.373C75.0223 277.175 77.698 281.806 83.5983 285.202L245.066 378.423C257.347 385.506 278.77 384.632 292.937 376.45L447.527 287.26C455.709 282.544 459.654 276.42 459.191 270.743V264.14C459.671 269.834 455.709 275.94 447.527 280.657Z" fill="url(#paint4_linear)"/>
<path d="M419.501 271.944C419.884 272.074 420.217 272.321 420.453 272.65C420.689 272.98 420.816 273.374 420.816 273.779C420.816 274.184 420.689 274.579 420.453 274.908C420.217 275.237 419.884 275.484 419.501 275.615C418.514 276.122 417.42 276.386 416.311 276.386C415.201 276.386 414.107 276.122 413.121 275.615C412.737 275.484 412.404 275.237 412.168 274.908C411.932 274.579 411.806 274.184 411.806 273.779C411.806 273.374 411.932 272.98 412.168 272.65C412.404 272.321 412.737 272.074 413.121 271.944C414.107 271.437 415.201 271.172 416.311 271.172C417.42 271.172 418.514 271.437 419.501 271.944Z" fill="#FCCC6B"/>
<path d="M429.432 266.13C429.822 266.256 430.161 266.502 430.402 266.834C430.643 267.165 430.773 267.564 430.773 267.974C430.773 268.383 430.643 268.782 430.402 269.113C430.161 269.445 429.822 269.691 429.432 269.817C428.443 270.316 427.35 270.576 426.242 270.576C425.134 270.576 424.041 270.316 423.051 269.817C422.662 269.691 422.322 269.445 422.081 269.113C421.84 268.782 421.711 268.383 421.711 267.974C421.711 267.564 421.84 267.165 422.081 266.834C422.322 266.502 422.662 266.256 423.051 266.13C424.041 265.631 425.134 265.371 426.242 265.371C427.35 265.371 428.443 265.631 429.432 266.13Z" fill="#FCCC6B"/>
<path d="M439.38 260.384C439.762 260.518 440.092 260.768 440.326 261.098C440.559 261.428 440.685 261.823 440.685 262.227C440.685 262.632 440.559 263.026 440.326 263.357C440.092 263.687 439.762 263.937 439.38 264.071C438.393 264.578 437.3 264.843 436.19 264.843C435.08 264.843 433.987 264.578 433 264.071C432.61 263.945 432.27 263.699 432.029 263.367C431.789 263.036 431.659 262.637 431.659 262.227C431.659 261.818 431.789 261.419 432.029 261.087C432.27 260.756 432.61 260.51 433 260.384C433.989 259.884 435.082 259.625 436.19 259.625C437.298 259.625 438.391 259.884 439.38 260.384Z" fill="#FCCC6B"/>
<path opacity="0.5" d="M253.248 319.644L151.194 260.71C143.441 256.233 144.333 248.412 153.355 243.249L251.121 186.836C260.074 181.691 273.624 181.108 281.377 185.584L383.379 244.501C391.132 248.978 390.24 256.799 381.201 261.979L283.435 318.392C274.55 323.554 261 324.12 253.248 319.644Z" fill="#0B0244"/>
<path opacity="0.5" d="M459.191 252.391C459.233 251.82 459.233 251.247 459.191 250.676V166.477L325.406 167.077L289.387 146.324C277.123 139.24 255.683 140.132 241.516 148.313L208.224 167.592L75.3139 168.192V252.391C74.9537 257.176 77.6294 261.807 83.5297 265.203L244.998 358.441C257.278 365.525 278.701 364.633 292.869 356.451L447.459 267.262C454.817 263.008 458.745 257.639 459.122 252.459L459.191 252.391Z" fill="#01E4F0"/>
<path d="M459.191 166.477V136.341H381.424L289.49 83.2732C277.226 76.1895 255.786 77.0814 241.619 85.2629L153.132 136.358H75.3139V168.209C74.9537 172.995 77.6294 177.626 83.5297 181.022L244.998 274.26C257.278 281.343 278.701 280.451 292.869 272.27L447.459 183.08C455.709 178.278 459.671 172.172 459.191 166.477Z" fill="#312A91"/>
<path opacity="0.5" d="M459.191 166.477V136.341H381.424L289.49 83.2732C277.226 76.1895 255.786 77.0814 241.619 85.2629L153.132 136.358H75.3139V168.209C74.9537 172.995 77.6294 177.626 83.5297 181.022L244.998 274.26C257.278 281.343 278.701 280.451 292.869 272.27L447.459 183.08C455.709 178.278 459.671 172.172 459.191 166.477Z" fill="url(#paint5_linear)"/>
<path d="M289.49 83.2729C283.589 79.8425 275.579 78.3332 267.192 78.539V278.993C276.189 278.874 285.021 276.56 292.92 272.252L447.51 183.063C455.692 178.346 459.637 172.24 459.173 166.545V136.341H381.424L289.49 83.2729Z" fill="url(#paint6_linear)"/>
<path d="M245.066 242.391L83.5983 149.17C71.3347 142.087 72.8612 129.703 87.0287 121.522L241.619 32.3318C255.786 24.1675 277.226 23.2756 289.49 30.3593L450.975 123.58C463.238 130.664 461.695 143.047 447.544 151.212L292.954 240.401C278.77 248.583 257.278 249.475 245.066 242.391Z" fill="#312A91"/>
<path opacity="0.5" d="M245.066 242.391L83.5983 149.17C71.3347 142.087 72.8612 129.703 87.0287 121.522L241.619 32.3318C255.786 24.1675 277.226 23.2756 289.49 30.3593L450.975 123.58C463.238 130.664 461.695 143.047 447.544 151.212L292.954 240.401C278.77 248.583 257.278 249.475 245.066 242.391Z" fill="url(#paint7_linear)"/>
<path opacity="0.5" d="M250.418 242.392L89.0183 149.171C76.7547 142.087 73.8217 131.676 92.4486 121.522L247.056 32.3322C254.503 28.2617 262.794 25.9776 271.274 25.6601C260.964 25.1235 250.705 27.4317 241.619 32.3322L87.0287 121.522C72.8612 129.704 71.3347 142.104 83.5983 149.171L245.066 242.392C251.31 245.993 259.903 247.537 268.719 247.091C262.335 246.978 256.066 245.368 250.418 242.392Z" fill="url(#paint8_linear)"/>
<path opacity="0.5" d="M447.527 164.608L292.937 253.797C278.77 261.979 257.347 262.871 245.066 255.787L83.5983 162.549C77.698 159.119 75.0223 154.522 75.3825 149.737V156.34C75.0223 161.126 77.698 165.757 83.5983 169.153L245.066 262.391C257.347 269.474 278.77 268.582 292.937 260.401L447.527 171.211C455.709 166.494 459.654 160.388 459.191 154.694V148.09C459.671 153.785 455.709 159.891 447.527 164.608Z" fill="url(#paint9_linear)"/>
<path opacity="0.2" d="M254.448 143.082C257.793 145.02 257.793 148.227 254.448 150.097C252.567 151.052 250.487 151.55 248.377 151.55C246.267 151.55 244.186 151.052 242.305 150.097C238.874 148.159 238.874 144.951 242.305 143.082C244.186 142.127 246.267 141.629 248.377 141.629C250.487 141.629 252.567 142.127 254.448 143.082Z" fill="#5CFFF3"/>
<path opacity="0.6" d="M273.35 132.173C276.78 134.111 276.78 137.319 273.35 139.171C271.468 140.126 269.388 140.624 267.278 140.624C265.168 140.624 263.088 140.126 261.206 139.171C257.776 137.25 257.776 134.026 261.206 132.173C263.088 131.218 265.168 130.72 267.278 130.72C269.388 130.72 271.468 131.218 273.35 132.173Z" fill="#5CFFF3"/>
<path d="M292.268 121.247C295.699 123.186 295.699 126.393 292.268 128.263C290.387 129.218 288.306 129.716 286.196 129.716C284.086 129.716 282.006 129.218 280.125 128.263C276.694 126.324 276.694 123.117 280.125 121.247C282.006 120.292 284.086 119.794 286.196 119.794C288.306 119.794 290.387 120.292 292.268 121.247Z" fill="#5CFFF3"/>
<path opacity="0.5" d="M266.232 219.476C260.677 219.635 255.175 218.372 250.246 215.806L130.852 146.872C126.512 144.368 124.128 140.835 124.128 136.941C124.128 132.327 127.559 127.731 133.39 124.335L247.708 58.3341C258.496 52.1079 274.928 51.4733 284.31 56.8762L403.704 125.792C408.044 128.314 410.445 131.83 410.445 135.723C410.445 140.337 407.014 144.951 401.166 148.347L286.865 214.348C280.533 217.778 273.433 219.542 266.232 219.476ZM251.464 213.627C260.194 218.67 275.477 218.001 285.648 212.169L399.948 146.169C405.093 143.219 408.009 139.308 408.009 135.655C408.009 132.67 406.054 129.892 402.486 127.851L283.092 58.9172C274.379 53.8746 259.079 54.5263 248.925 60.3751L134.608 126.376C129.462 129.326 126.564 133.236 126.564 136.873C126.564 139.874 128.519 142.653 132.07 144.694L251.464 213.627Z" fill="#0B0244"/>
<path d="M265.528 266.49C259.443 266.659 253.416 265.271 248.016 262.459L43.4457 144.368C38.8833 141.727 36.3619 138.039 36.3619 134.077C36.3619 129.24 39.981 124.369 46.31 120.716L245.135 5.91805C257.038 -0.942712 275.099 -1.68024 285.408 4.20286L489.978 122.311C494.541 124.952 497.062 128.623 497.062 132.602C497.062 137.439 493.443 142.31 487.114 145.963L288.289 260.812C281.308 264.608 273.474 266.561 265.528 266.49ZM267.895 0.943994C260.081 0.880746 252.379 2.80483 245.512 6.53552L46.7045 121.333C40.6156 124.764 37.1166 129.463 37.1166 134.026C37.1166 137.765 39.5007 141.195 43.8402 143.699L248.394 261.79C258.496 267.639 276.214 266.936 287.843 260.075L486.719 145.363C492.808 141.933 496.307 137.216 496.307 132.653C496.307 128.914 493.923 125.484 489.584 122.98L285.03 4.88894C279.749 2.1326 273.85 0.774483 267.895 0.943994Z" fill="#6EE8FC"/>
<path d="M220.47 23.0355C220.47 23.9081 220.211 24.761 219.726 25.4863C219.241 26.2115 218.552 26.7765 217.745 27.1096C216.939 27.4427 216.052 27.529 215.196 27.3576C214.341 27.1861 213.555 26.7646 212.939 26.1464C212.324 25.5282 211.905 24.7411 211.737 23.8849C211.569 23.0287 211.659 22.1419 211.995 21.3367C212.331 20.5316 212.899 19.8443 213.626 19.362C214.353 18.8797 215.207 18.6241 216.08 18.6275C216.658 18.6275 217.23 18.7416 217.764 18.9633C218.298 19.1851 218.782 19.51 219.19 19.9196C219.598 20.3291 219.921 20.8152 220.141 21.3499C220.361 21.8846 220.473 22.4575 220.47 23.0355Z" fill="#6EE8FC"/>
<path d="M60.4089 117.491C62.8434 117.491 64.8169 115.518 64.8169 113.083C64.8169 110.649 62.8434 108.675 60.4089 108.675C57.9744 108.675 56.0009 110.649 56.0009 113.083C56.0009 115.518 57.9744 117.491 60.4089 117.491Z" fill="#6EE8FC"/>
<path d="M402.709 196.853C402.709 197.725 402.451 198.577 401.966 199.302C401.482 200.027 400.794 200.592 399.988 200.925C399.183 201.259 398.296 201.346 397.441 201.176C396.586 201.006 395.801 200.586 395.184 199.97C394.568 199.353 394.148 198.568 393.978 197.713C393.808 196.858 393.895 195.971 394.229 195.166C394.563 194.361 395.127 193.672 395.852 193.188C396.577 192.703 397.43 192.445 398.301 192.445C399.47 192.445 400.592 192.909 401.418 193.736C402.245 194.563 402.709 195.684 402.709 196.853Z" fill="#6EE8FC"/>
<path d="M426.928 184.383C429.362 184.383 431.336 182.41 431.336 179.975C431.336 177.541 429.362 175.567 426.928 175.567C424.493 175.567 422.52 177.541 422.52 179.975C422.52 182.41 424.493 184.383 426.928 184.383Z" fill="#6EE8FC"/>
<path d="M459.945 163.372C459.945 164.244 459.687 165.096 459.202 165.821C458.718 166.546 458.03 167.111 457.224 167.445C456.419 167.779 455.532 167.866 454.677 167.696C453.822 167.526 453.037 167.106 452.42 166.489C451.804 165.873 451.384 165.087 451.214 164.232C451.044 163.377 451.131 162.491 451.465 161.686C451.798 160.88 452.363 160.192 453.088 159.707C453.813 159.223 454.665 158.964 455.537 158.964C456.706 158.964 457.827 159.429 458.654 160.255C459.481 161.082 459.945 162.203 459.945 163.372Z" fill="#6EE8FC"/>
</g>
<defs>
<linearGradient id="paint0_linear" x1="-9.55366" y1="294.791" x2="374.357" y2="294.791" gradientUnits="userSpaceOnUse">
<stop stop-color="#42E8E0"/>
<stop offset="0.1" stop-color="#3CCACE"/>
<stop offset="0.34" stop-color="#2F87A5"/>
<stop offset="0.56" stop-color="#255385"/>
<stop offset="0.75" stop-color="#1E2D6E"/>
<stop offset="0.91" stop-color="#1A1660"/>
<stop offset="1" stop-color="#180D5B"/>
</linearGradient>
<linearGradient id="paint1_linear" x1="267.261" y1="294.79" x2="459.225" y2="294.79" gradientUnits="userSpaceOnUse">
<stop stop-color="#2B237C"/>
<stop offset="1" stop-color="#180D5B"/>
</linearGradient>
<linearGradient id="paint2_linear" x1="65310.2" y1="55892.9" x2="151255" y2="55892.9" gradientUnits="userSpaceOnUse">
<stop stop-color="#42E8E0"/>
<stop offset="0.1" stop-color="#3CCACE"/>
<stop offset="0.34" stop-color="#2F87A5"/>
<stop offset="0.56" stop-color="#255385"/>
<stop offset="0.75" stop-color="#1E2D6E"/>
<stop offset="0.91" stop-color="#1A1660"/>
<stop offset="1" stop-color="#180D5B"/>
</linearGradient>
<linearGradient id="paint3_linear" x1="33370.8" y1="55895.4" x2="55759.2" y2="55895.4" gradientUnits="userSpaceOnUse">
<stop stop-color="#42E8E0"/>
<stop offset="0.1" stop-color="#3CCACE"/>
<stop offset="0.34" stop-color="#2F87A5"/>
<stop offset="0.56" stop-color="#255385"/>
<stop offset="0.75" stop-color="#1E2D6E"/>
<stop offset="0.91" stop-color="#1A1660"/>
<stop offset="1" stop-color="#180D5B"/>
</linearGradient>
<linearGradient id="paint4_linear" x1="76985.5" y1="37977.5" x2="95853.9" y2="-1781.98" gradientUnits="userSpaceOnUse">
<stop stop-color="#42E8E0"/>
<stop offset="0.1" stop-color="#3CCACE"/>
<stop offset="0.34" stop-color="#2F87A5"/>
<stop offset="0.56" stop-color="#255385"/>
<stop offset="0.75" stop-color="#1E2D6E"/>
<stop offset="0.91" stop-color="#1A1660"/>
<stop offset="1" stop-color="#180D5B"/>
</linearGradient>
<linearGradient id="paint5_linear" x1="46314.1" y1="41926.7" x2="132253" y2="41926.7" gradientUnits="userSpaceOnUse">
<stop stop-color="#42E8E0"/>
<stop offset="0.1" stop-color="#3CCACE"/>
<stop offset="0.34" stop-color="#2F87A5"/>
<stop offset="0.56" stop-color="#255385"/>
<stop offset="0.75" stop-color="#1E2D6E"/>
<stop offset="0.91" stop-color="#1A1660"/>
<stop offset="1" stop-color="#180D5B"/>
</linearGradient>
<linearGradient id="paint6_linear" x1="54381.6" y1="41909.1" x2="75872.2" y2="41909.1" gradientUnits="userSpaceOnUse">
<stop stop-color="#2B237C"/>
<stop offset="1" stop-color="#180D5B"/>
</linearGradient>
<linearGradient id="paint7_linear" x1="65310.2" y1="40785.7" x2="151255" y2="40785.7" gradientUnits="userSpaceOnUse">
<stop stop-color="#42E8E0"/>
<stop offset="0.1" stop-color="#3CCACE"/>
<stop offset="0.34" stop-color="#2F87A5"/>
<stop offset="0.56" stop-color="#255385"/>
<stop offset="0.75" stop-color="#1E2D6E"/>
<stop offset="0.91" stop-color="#1A1660"/>
<stop offset="1" stop-color="#180D5B"/>
</linearGradient>
<linearGradient id="paint8_linear" x1="33370.8" y1="40783.4" x2="55759.2" y2="40783.4" gradientUnits="userSpaceOnUse">
<stop stop-color="#42E8E0"/>
<stop offset="0.1" stop-color="#3CCACE"/>
<stop offset="0.34" stop-color="#2F87A5"/>
<stop offset="0.56" stop-color="#255385"/>
<stop offset="0.75" stop-color="#1E2D6E"/>
<stop offset="0.91" stop-color="#1A1660"/>
<stop offset="1" stop-color="#180D5B"/>
</linearGradient>
<linearGradient id="paint9_linear" x1="76985.5" y1="29807.5" x2="95856.4" y2="-9954" gradientUnits="userSpaceOnUse">
<stop stop-color="#42E8E0"/>
<stop offset="0.1" stop-color="#3CCACE"/>
<stop offset="0.34" stop-color="#2F87A5"/>
<stop offset="0.56" stop-color="#255385"/>
<stop offset="0.75" stop-color="#1E2D6E"/>
<stop offset="0.91" stop-color="#1A1660"/>
<stop offset="1" stop-color="#180D5B"/>
</linearGradient>
<clipPath id="clip0">
<rect width="542" height="542" fill="white" transform="translate(0 0.944336)"/>
</clipPath>
</defs>
</svg>
