<svg width="88" height="28" viewBox="0 0 88 28" fill="none" xmlns="http://www.w3.org/2000/svg">
<path d="M8.60787 27.5C7.19009 27.5 5.94108 27.2715 4.86086 26.8147C3.80315 26.3578 2.90297 25.7183 2.16032 24.8959C1.44017 24.0736 0.90006 23.1028 0.539987 21.9835C0.179914 20.8414 -0.00012207 19.585 -0.00012207 18.2145C-0.00012207 16.8439 0.191167 15.5876 0.573744 14.4454C0.978827 13.3033 1.54144 12.3211 2.26159 11.4988C2.98173 10.6536 3.85941 10.0026 4.89462 9.54571C5.95233 9.06602 7.12257 8.82617 8.40533 8.82617C9.19299 8.82617 9.98065 8.8947 10.7683 9.03176C11.556 9.16881 12.3099 9.38582 13.03 9.68277L12.3211 12.3896C11.8485 12.1612 11.2972 11.9784 10.667 11.8414C10.0594 11.7043 9.40679 11.6358 8.70914 11.6358C6.95379 11.6358 5.60351 12.1955 4.65832 13.3147C3.73564 14.434 3.27429 16.0673 3.27429 18.2145C3.27429 19.1739 3.37556 20.0533 3.5781 20.8528C3.80315 21.6523 4.14072 22.3376 4.59081 22.9086C5.0634 23.4797 5.65978 23.9251 6.37992 24.2449C7.10007 24.5419 7.97775 24.6903 9.01296 24.6903C9.84563 24.6903 10.5995 24.6104 11.2747 24.4505C11.9498 24.2906 12.4787 24.1193 12.8612 23.9365L13.3001 26.6091C13.12 26.7233 12.8612 26.8375 12.5237 26.9517C12.1861 27.0431 11.8035 27.1231 11.3759 27.1916C10.9483 27.283 10.487 27.3515 9.9919 27.3972C9.51931 27.4657 9.05796 27.5 8.60787 27.5Z" fill="#01E4F0"/>
<path d="M8.60787 27.5C7.19009 27.5 5.94108 27.2715 4.86086 26.8147C3.80315 26.3578 2.90297 25.7183 2.16032 24.8959C1.44017 24.0736 0.90006 23.1028 0.539987 21.9835C0.179914 20.8414 -0.00012207 19.585 -0.00012207 18.2145C-0.00012207 16.8439 0.191167 15.5876 0.573744 14.4454C0.978827 13.3033 1.54144 12.3211 2.26159 11.4988C2.98173 10.6536 3.85941 10.0026 4.89462 9.54571C5.95233 9.06602 7.12257 8.82617 8.40533 8.82617C9.19299 8.82617 9.98065 8.8947 10.7683 9.03176C11.556 9.16881 12.3099 9.38582 13.03 9.68277L12.3211 12.3896C11.8485 12.1612 11.2972 11.9784 10.667 11.8414C10.0594 11.7043 9.40679 11.6358 8.70914 11.6358C6.95379 11.6358 5.60351 12.1955 4.65832 13.3147C3.73564 14.434 3.27429 16.0673 3.27429 18.2145C3.27429 19.1739 3.37556 20.0533 3.5781 20.8528C3.80315 21.6523 4.14072 22.3376 4.59081 22.9086C5.0634 23.4797 5.65978 23.9251 6.37992 24.2449C7.10007 24.5419 7.97775 24.6903 9.01296 24.6903C9.84563 24.6903 10.5995 24.6104 11.2747 24.4505C11.9498 24.2906 12.4787 24.1193 12.8612 23.9365L13.3001 26.6091C13.12 26.7233 12.8612 26.8375 12.5237 26.9517C12.1861 27.0431 11.8035 27.1231 11.3759 27.1916C10.9483 27.283 10.487 27.3515 9.9919 27.3972C9.51931 27.4657 9.05796 27.5 8.60787 27.5Z" fill="black" fill-opacity="0.05"/>
<path d="M27.6171 13.0406C27.2346 12.7208 26.6832 12.4124 25.9631 12.1154C25.2429 11.8185 24.4553 11.67 23.6001 11.67C22.6999 11.67 21.9235 11.8413 21.2709 12.184C20.6407 12.5038 20.1231 12.9606 19.718 13.5545C19.313 14.1256 19.0204 14.8109 18.8404 15.6104C18.6603 16.4098 18.5703 17.2664 18.5703 18.1801C18.5703 20.2588 19.0767 21.8692 20.0894 23.0113C21.1021 24.1306 22.4523 24.6903 24.1402 24.6903C24.9954 24.6903 25.7043 24.656 26.2669 24.5875C26.852 24.4961 27.3021 24.4047 27.6171 24.3134V13.0406ZM27.6171 1.04822L30.7565 0.5V26.5748C30.0364 26.7804 29.1137 26.986 27.9885 27.1915C26.8632 27.3971 25.5692 27.4999 24.1064 27.4999C22.7562 27.4999 21.5409 27.2829 20.4607 26.8489C19.3805 26.4149 18.4578 25.7981 17.6926 24.9987C16.9275 24.1992 16.3311 23.2284 15.9035 22.0862C15.4984 20.9213 15.2959 19.6192 15.2959 18.1801C15.2959 16.8096 15.4647 15.5533 15.8023 14.4111C16.1623 13.269 16.6799 12.2868 17.3551 11.4644C18.0302 10.6421 18.8516 10.0025 19.8193 9.54566C20.8095 9.08881 21.9347 8.86038 23.195 8.86038C24.2077 8.86038 25.0966 8.99743 25.8618 9.27154C26.6494 9.54566 27.2346 9.80835 27.6171 10.0596V1.04822Z" fill="#01E4F0"/>
<path d="M27.6171 13.0406C27.2346 12.7208 26.6832 12.4124 25.9631 12.1154C25.2429 11.8185 24.4553 11.67 23.6001 11.67C22.6999 11.67 21.9235 11.8413 21.2709 12.184C20.6407 12.5038 20.1231 12.9606 19.718 13.5545C19.313 14.1256 19.0204 14.8109 18.8404 15.6104C18.6603 16.4098 18.5703 17.2664 18.5703 18.1801C18.5703 20.2588 19.0767 21.8692 20.0894 23.0113C21.1021 24.1306 22.4523 24.6903 24.1402 24.6903C24.9954 24.6903 25.7043 24.656 26.2669 24.5875C26.852 24.4961 27.3021 24.4047 27.6171 24.3134V13.0406ZM27.6171 1.04822L30.7565 0.5V26.5748C30.0364 26.7804 29.1137 26.986 27.9885 27.1915C26.8632 27.3971 25.5692 27.4999 24.1064 27.4999C22.7562 27.4999 21.5409 27.2829 20.4607 26.8489C19.3805 26.4149 18.4578 25.7981 17.6926 24.9987C16.9275 24.1992 16.3311 23.2284 15.9035 22.0862C15.4984 20.9213 15.2959 19.6192 15.2959 18.1801C15.2959 16.8096 15.4647 15.5533 15.8023 14.4111C16.1623 13.269 16.6799 12.2868 17.3551 11.4644C18.0302 10.6421 18.8516 10.0025 19.8193 9.54566C20.8095 9.08881 21.9347 8.86038 23.195 8.86038C24.2077 8.86038 25.0966 8.99743 25.8618 9.27154C26.6494 9.54566 27.2346 9.80835 27.6171 10.0596V1.04822Z" fill="black" fill-opacity="0.05"/>
<path d="M55.4382 9.78539C56.1584 9.60265 57.1148 9.40849 58.3076 9.20291C59.5003 8.99732 60.8731 8.89453 62.4259 8.89453C63.8212 8.89453 64.9802 9.10011 65.9029 9.51128C66.8255 9.8996 67.5569 10.4592 68.097 11.1902C68.6597 11.8983 69.0535 12.7549 69.2785 13.76C69.5036 14.7651 69.6161 15.8729 69.6161 17.0836V27.0886H66.4767V17.7689C66.4767 16.6724 66.398 15.7359 66.2404 14.9592C66.1054 14.1826 65.8691 13.5544 65.5315 13.0747C65.194 12.595 64.7439 12.2524 64.1813 12.0468C63.6186 11.8184 62.921 11.7042 62.0883 11.7042C61.7508 11.7042 61.4019 11.7156 61.0419 11.7384C60.6818 11.7613 60.333 11.7955 59.9954 11.8412C59.6803 11.8641 59.3878 11.8983 59.1177 11.944C58.8702 11.9897 58.6901 12.024 58.5776 12.0468V27.0886H55.4382V9.78539Z" fill="#01E4F0"/>
<path d="M55.4382 9.78539C56.1584 9.60265 57.1148 9.40849 58.3076 9.20291C59.5003 8.99732 60.8731 8.89453 62.4259 8.89453C63.8212 8.89453 64.9802 9.10011 65.9029 9.51128C66.8255 9.8996 67.5569 10.4592 68.097 11.1902C68.6597 11.8983 69.0535 12.7549 69.2785 13.76C69.5036 14.7651 69.6161 15.8729 69.6161 17.0836V27.0886H66.4767V17.7689C66.4767 16.6724 66.398 15.7359 66.2404 14.9592C66.1054 14.1826 65.8691 13.5544 65.5315 13.0747C65.194 12.595 64.7439 12.2524 64.1813 12.0468C63.6186 11.8184 62.921 11.7042 62.0883 11.7042C61.7508 11.7042 61.4019 11.7156 61.0419 11.7384C60.6818 11.7613 60.333 11.7955 59.9954 11.8412C59.6803 11.8641 59.3878 11.8983 59.1177 11.944C58.8702 11.9897 58.6901 12.024 58.5776 12.0468V27.0886H55.4382V9.78539Z" fill="black" fill-opacity="0.05"/>
<path d="M87.9999 9.27148C87.1222 12.6065 86.087 15.8045 84.8942 18.8654C83.724 21.9263 82.5875 24.6674 81.4848 27.0887H78.6492C77.5465 24.6674 76.3988 21.9263 75.206 18.8654C74.0358 15.8045 73.0118 12.6065 72.1342 9.27148H75.5098C75.7799 10.3908 76.095 11.59 76.455 12.8692C76.8376 14.1255 77.2314 15.3819 77.6365 16.6382C78.0641 17.8717 78.4917 19.0709 78.9193 20.2359C79.3469 21.4009 79.752 22.4402 80.1345 23.3539C80.5171 22.4402 80.9222 21.4009 81.3498 20.2359C81.7774 19.0709 82.1937 17.8717 82.5988 16.6382C83.0264 15.3819 83.4202 14.1255 83.7803 12.8692C84.1628 11.59 84.4892 10.3908 84.7592 9.27148H87.9999Z" fill="#01E4F0"/>
<path d="M87.9999 9.27148C87.1222 12.6065 86.087 15.8045 84.8942 18.8654C83.724 21.9263 82.5875 24.6674 81.4848 27.0887H78.6492C77.5465 24.6674 76.3988 21.9263 75.206 18.8654C74.0358 15.8045 73.0118 12.6065 72.1342 9.27148H75.5098C75.7799 10.3908 76.095 11.59 76.455 12.8692C76.8376 14.1255 77.2314 15.3819 77.6365 16.6382C78.0641 17.8717 78.4917 19.0709 78.9193 20.2359C79.3469 21.4009 79.752 22.4402 80.1345 23.3539C80.5171 22.4402 80.9222 21.4009 81.3498 20.2359C81.7774 19.0709 82.1937 17.8717 82.5988 16.6382C83.0264 15.3819 83.4202 14.1255 83.7803 12.8692C84.1628 11.59 84.4892 10.3908 84.7592 9.27148H87.9999Z" fill="black" fill-opacity="0.05"/>
<rect x="35.502" y="24.1924" width="15.1906" height="2.89667" rx="1.44833" fill="#01E4F0"/>
<rect x="35.502" y="24.1924" width="15.1906" height="2.89667" rx="1.44833" fill="black" fill-opacity="0.05"/>
<rect x="35.502" y="3.34375" width="15.1906" height="2.89667" rx="1.44833" fill="#01E4F0"/>
<rect x="35.502" y="3.34375" width="15.1906" height="2.89667" rx="1.44833" fill="black" fill-opacity="0.05"/>
<rect x="36.4628" y="13.1079" width="10.8424" height="2.89667" rx="1.44833" fill="#01E4F0"/>
<rect x="36.4628" y="13.1079" width="10.8424" height="2.89667" rx="1.44833" fill="black" fill-opacity="0.05"/>
</svg>
